<svg id="TICKETSYS2" xmlns="http://www.w3.org/2000/svg" xmlns:xlink="http://www.w3.org/1999/xlink" viewBox="0 0 499.2 507.89"><defs><style>.cls-1{fill:#0e1033;}.cls-2{fill:#fff;}.cls-2,.cls-6,.cls-7{stroke:#231f20;}.cls-2,.cls-3,.cls-5,.cls-6,.cls-7,.cls-8,.cls-9{stroke-miterlimit:10;}.cls-2,.cls-3{stroke-width:2px;}.cls-3,.cls-5,.cls-6,.cls-7,.cls-8,.cls-9{fill:none;}.cls-3{stroke:url(#Orange_Yellow);}.cls-4{fill:url(#Orange_Yellow-2);}.cls-5,.cls-6,.cls-8,.cls-9{stroke-linecap:round;}.cls-5,.cls-8,.cls-9{stroke-width:3px;}.cls-5{stroke:url(#Orange_Yellow-3);}.cls-7{stroke-width:0.75px;}.cls-8,.cls-9{stroke:#fff;}.cls-9{stroke-dasharray:5.15 5.15;}</style><linearGradient id="Orange_Yellow" x1="109.31" y1="253.94" x2="389.89" y2="253.94" gradientUnits="userSpaceOnUse"><stop offset="0" stop-color="#fff33b"/><stop offset="0.04" stop-color="#fee72e"/><stop offset="0.12" stop-color="#fed51b"/><stop offset="0.2" stop-color="#fdca10"/><stop offset="0.28" stop-color="#fdc70c"/><stop offset="0.67" stop-color="#f3903f"/><stop offset="0.89" stop-color="#ed683c"/><stop offset="1" stop-color="#e93e3a"/></linearGradient><linearGradient id="Orange_Yellow-2" x1="278.69" y1="443.68" x2="347.48" y2="443.68" xlink:href="#Orange_Yellow"/><linearGradient id="Orange_Yellow-3" x1="191.53" y1="463.09" x2="294.76" y2="463.09" gradientTransform="matrix(2.04, 0, -0.02, 1, -178.31, -8.38)" xlink:href="#Orange_Yellow"/></defs><path class="cls-1" d="M117,409.74a3.82,3.82,0,0,0,1.91-3.53q-.37-6-.37-12A195.08,195.08,0,0,1,123.62,350a3.79,3.79,0,0,0-1.28-3.8l-46-37.52a3.82,3.82,0,0,1-1.17-4.3q3.31-8.79,7.27-17.24a3.8,3.8,0,0,1,3.88-2.17l59,6.61a3.79,3.79,0,0,0,3.61-1.74,195.71,195.71,0,0,1,36.9-42.7,3.8,3.8,0,0,0,1.2-3.83L171.9,185.88a3.81,3.81,0,0,1,1.58-4.16q7.8-5.15,16-9.72a3.84,3.84,0,0,1,4.43.53l43.8,40a3.78,3.78,0,0,0,3.95.71,193.77,193.77,0,0,1,55-12.85,3.79,3.79,0,0,0,3.23-2.39l21.46-55.27a3.84,3.84,0,0,1,3.73-2.44q9.43.43,18.68,1.55a3.81,3.81,0,0,1,3.27,3l11.92,58.07a3.78,3.78,0,0,0,2.78,2.9,193.56,193.56,0,0,1,52,21.9,3.81,3.81,0,0,0,4,0l49.85-32.1a3.8,3.8,0,0,1,4.45.22q7.32,5.87,14.18,12.25a3.83,3.83,0,0,1,.86,4.37l-24.49,54a3.75,3.75,0,0,0,.54,4,194.45,194.45,0,0,1,29.26,48.27,3.81,3.81,0,0,0,3.28,2.32l59.23,3.34a3.81,3.81,0,0,1,3.47,2.79q2.45,9,4.25,18.22a3.84,3.84,0,0,1-1.87,4l-51.59,29.31a3.8,3.8,0,0,0-1.91,3.53q.38,6,.37,12a195.1,195.1,0,0,1-5.07,44.28,3.79,3.79,0,0,0,1.28,3.8l46,37.52a3.82,3.82,0,0,1,1.17,4.3q-3.33,8.79-7.27,17.24a3.82,3.82,0,0,1-3.88,2.17l-59-6.61a3.78,3.78,0,0,0-3.61,1.74,195.71,195.71,0,0,1-36.9,42.7,3.78,3.78,0,0,0-1.2,3.83l15.14,57.38a3.81,3.81,0,0,1-1.58,4.16q-7.8,5.14-16,9.72a3.84,3.84,0,0,1-4.43-.53l-43.8-40a3.76,3.76,0,0,0-3.95-.71,193.77,193.77,0,0,1-55,12.85,3.78,3.78,0,0,0-3.23,2.39l-21.46,55.27a3.84,3.84,0,0,1-3.73,2.44q-9.44-.43-18.68-1.55a3.81,3.81,0,0,1-3.27-3l-11.92-58.08a3.8,3.8,0,0,0-2.78-2.89,193.56,193.56,0,0,1-52-21.9,3.81,3.81,0,0,0-4,0l-49.85,32.1a3.82,3.82,0,0,1-4.45-.22q-7.32-5.86-14.18-12.25a3.81,3.81,0,0,1-.86-4.37l24.49-54a3.77,3.77,0,0,0-.54-4,194.21,194.21,0,0,1-29.26-48.26,3.81,3.81,0,0,0-3.28-2.32l-59.23-3.34a3.81,3.81,0,0,1-3.47-2.79q-2.46-9-4.25-18.23a3.83,3.83,0,0,1,1.87-4Z" transform="translate(-63.48 -140.28)"/><circle class="cls-2" cx="249.6" cy="253.94" r="118"/><circle class="cls-3" cx="249.6" cy="253.94" r="139.29"/><path class="cls-1" d="M372.8,328.38l-.46,149.2c-2.06,1.35-4.12,2.71-6.08,4.2-9.51,5.88-19.57,11.27-30.33,14l-.14,0c-1.38.28-2.61.51-3.68.7a110,110,0,0,1-29.81,1.26,96.54,96.54,0,0,1-39-10.15A99.41,99.41,0,0,1,250,479.66V328.38a4,4,0,0,1,4-4h34.85a3.13,3.13,0,0,1,3.1,3.19v.13a18.73,18.73,0,1,0,37.46,0v-.13a3.13,3.13,0,0,1,3.1-3.19h36.31A4,4,0,0,1,372.8,328.38Z" transform="translate(-63.48 -140.28)"/><path class="cls-4" d="M330.07,389.13v30.14L312.48,431l-16.39-11.68V389.13a34.4,34.4,0,0,0,2.65,61.17v46.12c.66.22,1.56.5,2.63.75.72.16,1.65.35,3,.54a65.21,65.21,0,0,0,6.74.52l8.28-.29,6.78-1,1.18-.59a1.85,1.85,0,0,0,.07.51q.27,0,0-46.6a34.39,34.39,0,0,0,2.65-61.17Z" transform="translate(-63.48 -140.28)"/><path class="cls-5" d="M208.64,413.61c21.88,113.18,183.54,112.56,204.74-.1" transform="translate(-63.48 -140.28)"/><path class="cls-6" d="M477.37,648" transform="translate(-63.48 -140.28)"/><path class="cls-7" d="M321,335.57" transform="translate(-63.48 -140.28)"/><line class="cls-8" x1="185.94" y1="223.27" x2="188.44" y2="223.27"/><line class="cls-9" x1="193.58" y1="223.27" x2="304.24" y2="223.27"/><line class="cls-8" x1="306.82" y1="223.27" x2="309.32" y2="223.27"/></svg>